<svg width="27" height="27" viewBox="0 0 27 27" fill="none" xmlns="http://www.w3.org/2000/svg">
<path d="M14 22.95C13.6666 22.95 13.3458 22.8917 13.0375 22.775C12.7291 22.6583 12.45 22.4833 12.2 22.25L10.1 20.325C8.41662 18.775 6.84578 17.1833 5.38745 15.55C3.92912 13.9167 3.19995 12.05 3.19995 9.95C3.19995 8.18333 3.79995 6.70833 4.99995 5.525C6.19995 4.34167 7.68328 3.75 9.44995 3.75C10.4333 3.75 11.3166 3.95 12.1 4.35C12.8833 4.75 13.5166 5.16667 14 5.6C14.4833 5.16667 15.1166 4.75 15.9 4.35C16.6833 3.95 17.5666 3.75 18.55 3.75C20.3166 3.75 21.8 4.34167 23 5.525C24.2 6.70833 24.8 8.18333 24.8 9.95C24.8 12.05 24.0708 13.9167 22.6125 15.55C21.1541 17.1833 19.5916 18.7667 17.925 20.3L15.8 22.25C15.55 22.4833 15.2708 22.6583 14.9625 22.775C14.6541 22.8917 14.3333 22.95 14 22.95Z" fill="#B5B5B5"/>
</svg>
