<svg width="27" height="27" viewBox="0 0 27 27" fill="none" xmlns="http://www.w3.org/2000/svg">
<path d="M3.82495 21.375V11.3063C3.82495 10.8375 3.93276 10.3922 4.14839 9.97032C4.36401 9.54844 4.65933 9.19688 5.03433 8.91563L11.7281 3.90938C12.2718 3.51563 12.8625 3.31876 13.5 3.31876C14.1375 3.31876 14.7281 3.51563 15.2718 3.90938L21.9656 8.91563C22.3406 9.19688 22.6359 9.54844 22.8515 9.97032C23.0671 10.3922 23.175 10.8375 23.175 11.3063V21.375C23.175 22.2188 22.889 22.9266 22.3171 23.4984C21.7453 24.0703 21.0375 24.3563 20.1937 24.3563H17.5218C17.1093 24.3563 16.7578 24.2109 16.4671 23.9203C16.1765 23.6297 16.0312 23.2781 16.0312 22.8656V17.2406C16.0312 16.8281 15.8859 16.4766 15.5953 16.1859C15.3046 15.8953 14.9531 15.75 14.5406 15.75H12.4593C12.0468 15.75 11.6953 15.8953 11.4046 16.1859C11.114 16.4766 10.9687 16.8281 10.9687 17.2406V22.8656C10.9687 23.2781 10.8234 23.6297 10.5328 23.9203C10.2421 24.2109 9.89058 24.3563 9.47808 24.3563H6.8062C5.96245 24.3563 5.25464 24.0703 4.68276 23.4984C4.11089 22.9266 3.82495 22.2188 3.82495 21.375Z" fill="#B5B5B5"/>
</svg>
